<svg width="800" height="600" viewBox="0 0 800 600" xmlns="http://www.w3.org/2000/svg">
  <defs>
    <filter id="glow" x="-20%" y="-20%" width="140%" height="140%">
      <feGaussianBlur stdDeviation="10" result="blur" />
      <feComposite in="SourceGraphic" in2="blur" operator="over" />
    </filter>
    <linearGradient id="gradientPrimary" x1="0%" y1="0%" x2="100%" y2="100%">
      <stop offset="0%" stop-color="#ff00ff" />
      <stop offset="100%" stop-color="#9900ff" />
    </linearGradient>
    <linearGradient id="gradientSecondary" x1="0%" y1="0%" x2="100%" y2="100%">
      <stop offset="0%" stop-color="#00ffff" />
      <stop offset="100%" stop-color="#00ff99" />
    </linearGradient>
    <linearGradient id="gridGradient" x1="0%" y1="0%" x2="0%" y2="100%">
      <stop offset="0%" stop-color="#111111" />
      <stop offset="100%" stop-color="#000000" />
    </linearGradient>
  </defs>
  
  <!-- Background -->
  <rect x="0" y="0" width="800" height="600" fill="url(#gridGradient)" />
  
  <!-- Grid lines -->
  <g opacity="0.3">
    <!-- Horizontal lines -->
    <line x1="0" y1="50" x2="800" y2="50" stroke="#333" />
    <line x1="0" y1="100" x2="800" y2="100" stroke="#333" />
    <line x1="0" y1="150" x2="800" y2="150" stroke="#333" />
    <line x1="0" y1="200" x2="800" y2="200" stroke="#333" />
    <line x1="0" y1="250" x2="800" y2="250" stroke="#333" />
    <line x1="0" y1="300" x2="800" y2="300" stroke="#333" />
    <line x1="0" y1="350" x2="800" y2="350" stroke="#333" />
    <line x1="0" y1="400" x2="800" y2="400" stroke="#333" />
    <line x1="0" y1="450" x2="800" y2="450" stroke="#333" />
    <line x1="0" y1="500" x2="800" y2="500" stroke="#333" />
    <line x1="0" y1="550" x2="800" y2="550" stroke="#333" />
    
    <!-- Vertical lines -->
    <line x1="50" y1="0" x2="50" y2="600" stroke="#333" />
    <line x1="100" y1="0" x2="100" y2="600" stroke="#333" />
    <line x1="150" y1="0" x2="150" y2="600" stroke="#333" />
    <line x1="200" y1="0" x2="200" y2="600" stroke="#333" />
    <line x1="250" y1="0" x2="250" y2="600" stroke="#333" />
    <line x1="300" y1="0" x2="300" y2="600" stroke="#333" />
    <line x1="350" y1="0" x2="350" y2="600" stroke="#333" />
    <line x1="400" y1="0" x2="400" y2="600" stroke="#333" />
    <line x1="450" y1="0" x2="450" y2="600" stroke="#333" />
    <line x1="500" y1="0" x2="500" y2="600" stroke="#333" />
    <line x1="550" y1="0" x2="550" y2="600" stroke="#333" />
    <line x1="600" y1="0" x2="600" y2="600" stroke="#333" />
    <line x1="650" y1="0" x2="650" y2="600" stroke="#333" />
    <line x1="700" y1="0" x2="700" y2="600" stroke="#333" />
    <line x1="750" y1="0" x2="750" y2="600" stroke="#333" />
  </g>
  
  <!-- Maze elements with glow effect -->
  <g filter="url(#glow)">
    <!-- Primary color maze paths -->
    <path d="M100,100 L400,100 L400,200 L300,200 L300,300 L500,300 L500,400 L200,400 L200,300 L100,300 Z" 
          stroke="url(#gradientPrimary)" stroke-width="6" fill="none" />
    
    <!-- Secondary color maze paths -->
    <path d="M600,100 L700,100 L700,500 L500,500 L500,400 L600,400 Z" 
          stroke="url(#gradientSecondary)" stroke-width="6" fill="none" />
    
    <!-- Exit portal -->
    <circle cx="650" cy="450" r="30" fill="rgba(0,255,255,0.5)" />
    
    <!-- Player -->
    <circle cx="150" cy="150" r="15" fill="#ff00ff" />
  </g>
  
  <!-- Title text -->
  <text x="400" y="50" font-family="Arial, sans-serif" font-size="48" font-weight="bold" text-anchor="middle" fill="white" filter="url(#glow)">NEON MAZE</text>
  
  <!-- Tagline -->
  <text x="400" y="550" font-family="Arial, sans-serif" font-size="24" text-anchor="middle" fill="white">Find your way through the neon labyrinth</text>
</svg>
